<svg xmlns="http://www.w3.org/2000/svg" viewBox="0 0 800 600"><rect width="800" height="600" fill="#0F221E"/><path d="M0,380 C180,300 620,280 800,340 L800,600 L0,600 Z" fill="#1B1E24"/><circle cx="635" cy="462" r="29" fill="#FFFFFF" opacity="0.66"/><circle cx="462" cy="289" r="26" fill="#FFFFFF" opacity="0.68"/><circle cx="422" cy="338" r="40" fill="#FFFFFF" opacity="0.48"/><circle cx="785" cy="263" r="29" fill="#FFFFFF" opacity="0.83"/><circle cx="735" cy="512" r="18" fill="#FFFFFF" opacity="0.75"/><circle cx="14" cy="374" r="23" fill="#FFFFFF" opacity="0.38"/><circle cx="604" cy="342" r="44" fill="#FFFFFF" opacity="0.45"/><circle cx="556" cy="469" r="38" fill="#FFFFFF" opacity="0.80"/><circle cx="255" cy="486" r="22" fill="#FFFFFF" opacity="0.88"/><circle cx="60" cy="438" r="36" fill="#FFFFFF" opacity="0.51"/><circle cx="311" cy="438" r="16" fill="#FFFFFF" opacity="0.54"/><circle cx="700" cy="332" r="32" fill="#FFFFFF" opacity="0.39"/><circle cx="203" cy="463" r="18" fill="#FFFFFF" opacity="0.38"/><circle cx="53" cy="299" r="10" fill="#FFFFFF" opacity="0.47"/><circle cx="82" cy="355" r="20" fill="#FFFFFF" opacity="0.70"/><circle cx="582" cy="517" r="34" fill="#FFFFFF" opacity="0.70"/><circle cx="734" cy="417" r="46" fill="#FFFFFF" opacity="0.43"/><circle cx="541" cy="393" r="22" fill="#FFFFFF" opacity="0.41"/><circle cx="500" cy="307" r="20" fill="#FFFFFF" opacity="0.58"/><circle cx="289" cy="471" r="39" fill="#FFFFFF" opacity="0.59"/><circle cx="428" cy="474" r="30" fill="#FFFFFF" opacity="0.41"/><circle cx="754" cy="339" r="27" fill="#FFFFFF" opacity="0.50"/><circle cx="454" cy="348" r="18" fill="#FFFFFF" opacity="0.69"/><circle cx="428" cy="258" r="16" fill="#FFFFFF" opacity="0.82"/><circle cx="43" cy="435" r="23" fill="#FFFFFF" opacity="0.72"/><circle cx="697" cy="431" r="35" fill="#FFFFFF" opacity="0.52"/><circle cx="39" cy="392" r="28" fill="#FFFFFF" opacity="0.51"/><circle cx="576" cy="438" r="29" fill="#FFFFFF" opacity="0.58"/><circle cx="105" cy="250" r="10" fill="#FFFFFF" opacity="0.63"/><circle cx="384" cy="329" r="41" fill="#FFFFFF" opacity="0.40"/><circle cx="52" cy="463" r="20" fill="#FFFFFF" opacity="0.66"/><circle cx="101" cy="290" r="46" fill="#FFFFFF" opacity="0.90"/><circle cx="717" cy="371" r="14" fill="#FFFFFF" opacity="0.42"/><circle cx="642" cy="507" r="21" fill="#FFFFFF" opacity="0.83"/><circle cx="494" cy="308" r="42" fill="#FFFFFF" opacity="0.78"/><circle cx="445" cy="514" r="14" fill="#FFFFFF" opacity="0.71"/><circle cx="361" cy="294" r="30" fill="#FFFFFF" opacity="0.89"/><circle cx="743" cy="361" r="22" fill="#FFFFFF" opacity="0.61"/><circle cx="254" cy="326" r="12" fill="#FFFFFF" opacity="0.87"/><circle cx="605" cy="397" r="42" fill="#FFFFFF" opacity="0.66"/><circle cx="512" cy="346" r="37" fill="#FFFFFF" opacity="0.53"/><circle cx="181" cy="423" r="27" fill="#FFFFFF" opacity="0.80"/><circle cx="674" cy="477" r="22" fill="#FFFFFF" opacity="0.58"/><circle cx="155" cy="282" r="12" fill="#FFFFFF" opacity="0.79"/><circle cx="281" cy="416" r="15" fill="#FFFFFF" opacity="0.77"/><circle cx="400" cy="255" r="36" fill="#FFFFFF" opacity="0.79"/><circle cx="556" cy="373" r="46" fill="#FFFFFF" opacity="0.45"/><circle cx="593" cy="422" r="46" fill="#FFFFFF" opacity="0.83"/><circle cx="152" cy="331" r="23" fill="#FFFFFF" opacity="0.78"/><circle cx="558" cy="437" r="42" fill="#FFFFFF" opacity="0.57"/><circle cx="349" cy="444" r="18" fill="#FFFFFF" opacity="0.69"/><circle cx="48" cy="344" r="34" fill="#FFFFFF" opacity="0.68"/><circle cx="391" cy="445" r="15" fill="#FFFFFF" opacity="0.56"/><circle cx="195" cy="381" r="36" fill="#FFFFFF" opacity="0.45"/><circle cx="595" cy="500" r="22" fill="#FFFFFF" opacity="0.74"/><circle cx="427" cy="510" r="46" fill="#FFFFFF" opacity="0.86"/><circle cx="793" cy="422" r="32" fill="#FFFFFF" opacity="0.39"/><circle cx="463" cy="256" r="21" fill="#FFFFFF" opacity="0.50"/><circle cx="469" cy="369" r="45" fill="#FFFFFF" opacity="0.54"/><circle cx="652" cy="388" r="40" fill="#FFFFFF" opacity="0.48"/><circle cx="675" cy="482" r="43" fill="#FFFFFF" opacity="0.50"/><circle cx="310" cy="498" r="40" fill="#FFFFFF" opacity="0.87"/><circle cx="39" cy="483" r="31" fill="#FFFFFF" opacity="0.79"/><circle cx="570" cy="303" r="24" fill="#FFFFFF" opacity="0.45"/><circle cx="62" cy="358" r="34" fill="#FFFFFF" opacity="0.48"/><circle cx="68" cy="484" r="34" fill="#FFFFFF" opacity="0.48"/><circle cx="26" cy="506" r="32" fill="#FFFFFF" opacity="0.69"/><circle cx="587" cy="416" r="22" fill="#FFFFFF" opacity="0.40"/><circle cx="641" cy="398" r="32" fill="#FFFFFF" opacity="0.89"/><circle cx="517" cy="269" r="37" fill="#FFFFFF" opacity="0.88"/><circle cx="695" cy="437" r="22" fill="#FFFFFF" opacity="0.63"/><circle cx="490" cy="317" r="27" fill="#FFFFFF" opacity="0.82"/><circle cx="177" cy="352" r="11" fill="#FFFFFF" opacity="0.54"/><circle cx="36" cy="280" r="34" fill="#FFFFFF" opacity="0.88"/><circle cx="306" cy="488" r="36" fill="#FFFFFF" opacity="0.56"/><circle cx="460" cy="297" r="31" fill="#FFFFFF" opacity="0.41"/><circle cx="723" cy="268" r="20" fill="#FFFFFF" opacity="0.61"/><circle cx="768" cy="496" r="10" fill="#FFFFFF" opacity="0.55"/><circle cx="230" cy="259" r="14" fill="#FFFFFF" opacity="0.87"/><circle cx="721" cy="493" r="20" fill="#FFFFFF" opacity="0.83"/><circle cx="704" cy="508" r="32" fill="#FFFFFF" opacity="0.81"/><circle cx="222" cy="401" r="36" fill="#FFFFFF" opacity="0.40"/><circle cx="128" cy="382" r="23" fill="#FFFFFF" opacity="0.35"/><circle cx="372" cy="402" r="37" fill="#FFFFFF" opacity="0.77"/><circle cx="169" cy="452" r="36" fill="#FFFFFF" opacity="0.36"/><circle cx="569" cy="252" r="23" fill="#FFFFFF" opacity="0.36"/><circle cx="220" cy="266" r="42" fill="#FFFFFF" opacity="0.84"/><circle cx="212" cy="332" r="36" fill="#FFFFFF" opacity="0.70"/><circle cx="229" cy="434" r="30" fill="#FFFFFF" opacity="0.52"/><circle cx="790" cy="359" r="25" fill="#FFFFFF" opacity="0.66"/><circle cx="109" cy="384" r="11" fill="#FFFFFF" opacity="0.81"/><circle cx="736" cy="503" r="27" fill="#FFFFFF" opacity="0.86"/><circle cx="473" cy="432" r="17" fill="#FFFFFF" opacity="0.55"/><circle cx="228" cy="409" r="29" fill="#FFFFFF" opacity="0.85"/><circle cx="347" cy="472" r="11" fill="#FFFFFF" opacity="0.61"/><circle cx="715" cy="344" r="41" fill="#FFFFFF" opacity="0.69"/><circle cx="149" cy="366" r="22" fill="#FFFFFF" opacity="0.45"/><circle cx="454" cy="295" r="18" fill="#FFFFFF" opacity="0.87"/><circle cx="251" cy="301" r="11" fill="#FFFFFF" opacity="0.66"/><circle cx="476" cy="370" r="23" fill="#FFFFFF" opacity="0.61"/><circle cx="19" cy="314" r="22" fill="#FFFFFF" opacity="0.85"/><circle cx="392" cy="451" r="22" fill="#FFFFFF" opacity="0.82"/><circle cx="366" cy="277" r="45" fill="#FFFFFF" opacity="0.37"/><circle cx="141" cy="427" r="21" fill="#FFFFFF" opacity="0.66"/><circle cx="760" cy="505" r="17" fill="#FFFFFF" opacity="0.37"/><circle cx="742" cy="366" r="28" fill="#FFFFFF" opacity="0.55"/><circle cx="678" cy="303" r="41" fill="#FFFFFF" opacity="0.79"/><circle cx="590" cy="361" r="43" fill="#FFFFFF" opacity="0.63"/><circle cx="661" cy="342" r="21" fill="#FFFFFF" opacity="0.69"/><circle cx="294" cy="368" r="20" fill="#FFFFFF" opacity="0.51"/></svg>