<svg xmlns="http://www.w3.org/2000/svg" viewBox="0 0 800 600"><rect width="800" height="600" fill="#271F11"/><path d="M0,380 C180,300 620,280 800,340 L800,600 L0,600 Z" fill="#1E2226"/><circle cx="777" cy="505" r="20" fill="#FFFFFF" opacity="0.59"/><circle cx="278" cy="519" r="32" fill="#FFFFFF" opacity="0.67"/><circle cx="507" cy="340" r="14" fill="#FFFFFF" opacity="0.77"/><circle cx="306" cy="487" r="15" fill="#FFFFFF" opacity="0.48"/><circle cx="50" cy="356" r="34" fill="#FFFFFF" opacity="0.54"/><circle cx="649" cy="279" r="26" fill="#FFFFFF" opacity="0.88"/><circle cx="499" cy="295" r="46" fill="#FFFFFF" opacity="0.77"/><circle cx="525" cy="331" r="30" fill="#FFFFFF" opacity="0.37"/><circle cx="571" cy="273" r="41" fill="#FFFFFF" opacity="0.56"/><circle cx="739" cy="426" r="10" fill="#FFFFFF" opacity="0.42"/><circle cx="750" cy="380" r="31" fill="#FFFFFF" opacity="0.40"/><circle cx="708" cy="491" r="31" fill="#FFFFFF" opacity="0.55"/><circle cx="453" cy="475" r="36" fill="#FFFFFF" opacity="0.83"/><circle cx="628" cy="355" r="38" fill="#FFFFFF" opacity="0.52"/><circle cx="487" cy="489" r="44" fill="#FFFFFF" opacity="0.40"/><circle cx="283" cy="267" r="12" fill="#FFFFFF" opacity="0.53"/><circle cx="709" cy="496" r="40" fill="#FFFFFF" opacity="0.36"/><circle cx="551" cy="443" r="20" fill="#FFFFFF" opacity="0.55"/><circle cx="783" cy="376" r="36" fill="#FFFFFF" opacity="0.73"/><circle cx="741" cy="514" r="40" fill="#FFFFFF" opacity="0.70"/><circle cx="764" cy="365" r="40" fill="#FFFFFF" opacity="0.80"/><circle cx="626" cy="492" r="23" fill="#FFFFFF" opacity="0.79"/><circle cx="441" cy="480" r="17" fill="#FFFFFF" opacity="0.86"/><circle cx="542" cy="275" r="18" fill="#FFFFFF" opacity="0.69"/><circle cx="172" cy="396" r="26" fill="#FFFFFF" opacity="0.84"/><circle cx="179" cy="449" r="11" fill="#FFFFFF" opacity="0.83"/><circle cx="84" cy="362" r="15" fill="#FFFFFF" opacity="0.39"/><circle cx="523" cy="333" r="39" fill="#FFFFFF" opacity="0.45"/><circle cx="581" cy="443" r="22" fill="#FFFFFF" opacity="0.40"/><circle cx="590" cy="374" r="38" fill="#FFFFFF" opacity="0.58"/><circle cx="722" cy="421" r="19" fill="#FFFFFF" opacity="0.76"/><circle cx="721" cy="488" r="18" fill="#FFFFFF" opacity="0.70"/><circle cx="725" cy="512" r="31" fill="#FFFFFF" opacity="0.47"/><circle cx="26" cy="274" r="45" fill="#FFFFFF" opacity="0.58"/><circle cx="755" cy="322" r="22" fill="#FFFFFF" opacity="0.45"/><circle cx="492" cy="384" r="26" fill="#FFFFFF" opacity="0.65"/><circle cx="109" cy="447" r="43" fill="#FFFFFF" opacity="0.60"/><circle cx="171" cy="322" r="12" fill="#FFFFFF" opacity="0.66"/><circle cx="272" cy="286" r="43" fill="#FFFFFF" opacity="0.70"/><circle cx="730" cy="456" r="28" fill="#FFFFFF" opacity="0.68"/><circle cx="632" cy="431" r="10" fill="#FFFFFF" opacity="0.76"/><circle cx="262" cy="296" r="27" fill="#FFFFFF" opacity="0.77"/><circle cx="693" cy="267" r="31" fill="#FFFFFF" opacity="0.43"/><circle cx="613" cy="387" r="26" fill="#FFFFFF" opacity="0.65"/><circle cx="179" cy="382" r="39" fill="#FFFFFF" opacity="0.74"/><circle cx="295" cy="373" r="18" fill="#FFFFFF" opacity="0.90"/><circle cx="595" cy="507" r="35" fill="#FFFFFF" opacity="0.41"/><circle cx="27" cy="283" r="18" fill="#FFFFFF" opacity="0.83"/><circle cx="63" cy="445" r="45" fill="#FFFFFF" opacity="0.44"/><circle cx="288" cy="315" r="34" fill="#FFFFFF" opacity="0.85"/><circle cx="490" cy="342" r="27" fill="#FFFFFF" opacity="0.56"/><circle cx="392" cy="506" r="43" fill="#FFFFFF" opacity="0.89"/><circle cx="559" cy="340" r="18" fill="#FFFFFF" opacity="0.43"/><circle cx="530" cy="431" r="20" fill="#FFFFFF" opacity="0.55"/><circle cx="499" cy="440" r="31" fill="#FFFFFF" opacity="0.84"/><circle cx="683" cy="256" r="18" fill="#FFFFFF" opacity="0.55"/><circle cx="135" cy="486" r="26" fill="#FFFFFF" opacity="0.68"/><circle cx="298" cy="330" r="21" fill="#FFFFFF" opacity="0.36"/><circle cx="708" cy="439" r="30" fill="#FFFFFF" opacity="0.40"/><circle cx="601" cy="318" r="42" fill="#FFFFFF" opacity="0.62"/><circle cx="236" cy="350" r="27" fill="#FFFFFF" opacity="0.39"/><circle cx="339" cy="505" r="42" fill="#FFFFFF" opacity="0.54"/><circle cx="464" cy="425" r="43" fill="#FFFFFF" opacity="0.37"/><circle cx="260" cy="333" r="24" fill="#FFFFFF" opacity="0.41"/><circle cx="132" cy="448" r="19" fill="#FFFFFF" opacity="0.56"/><circle cx="178" cy="433" r="26" fill="#FFFFFF" opacity="0.61"/><circle cx="689" cy="515" r="27" fill="#FFFFFF" opacity="0.49"/><circle cx="15" cy="250" r="23" fill="#FFFFFF" opacity="0.56"/><circle cx="758" cy="382" r="10" fill="#FFFFFF" opacity="0.81"/><circle cx="300" cy="425" r="18" fill="#FFFFFF" opacity="0.74"/><circle cx="433" cy="384" r="21" fill="#FFFFFF" opacity="0.59"/><circle cx="597" cy="345" r="45" fill="#FFFFFF" opacity="0.89"/><circle cx="282" cy="380" r="27" fill="#FFFFFF" opacity="0.36"/><circle cx="260" cy="335" r="43" fill="#FFFFFF" opacity="0.71"/><circle cx="732" cy="405" r="42" fill="#FFFFFF" opacity="0.74"/><circle cx="307" cy="391" r="14" fill="#FFFFFF" opacity="0.67"/><circle cx="691" cy="383" r="15" fill="#FFFFFF" opacity="0.80"/><circle cx="553" cy="356" r="20" fill="#FFFFFF" opacity="0.70"/><circle cx="180" cy="265" r="44" fill="#FFFFFF" opacity="0.38"/><circle cx="617" cy="389" r="45" fill="#FFFFFF" opacity="0.63"/><circle cx="794" cy="457" r="31" fill="#FFFFFF" opacity="0.37"/><circle cx="91" cy="268" r="11" fill="#FFFFFF" opacity="0.77"/><circle cx="159" cy="416" r="30" fill="#FFFFFF" opacity="0.77"/><circle cx="58" cy="514" r="20" fill="#FFFFFF" opacity="0.58"/><circle cx="413" cy="287" r="25" fill="#FFFFFF" opacity="0.52"/><circle cx="528" cy="443" r="38" fill="#FFFFFF" opacity="0.60"/><circle cx="130" cy="354" r="28" fill="#FFFFFF" opacity="0.75"/><circle cx="473" cy="313" r="42" fill="#FFFFFF" opacity="0.69"/><circle cx="116" cy="331" r="16" fill="#FFFFFF" opacity="0.84"/><circle cx="164" cy="428" r="17" fill="#FFFFFF" opacity="0.86"/><circle cx="336" cy="408" r="25" fill="#FFFFFF" opacity="0.47"/><circle cx="728" cy="341" r="15" fill="#FFFFFF" opacity="0.53"/><circle cx="183" cy="301" r="40" fill="#FFFFFF" opacity="0.87"/><circle cx="600" cy="286" r="31" fill="#FFFFFF" opacity="0.62"/><circle cx="64" cy="266" r="19" fill="#FFFFFF" opacity="0.42"/><circle cx="385" cy="288" r="31" fill="#FFFFFF" opacity="0.80"/><circle cx="463" cy="482" r="28" fill="#FFFFFF" opacity="0.90"/><circle cx="342" cy="427" r="28" fill="#FFFFFF" opacity="0.59"/><circle cx="129" cy="489" r="42" fill="#FFFFFF" opacity="0.41"/><circle cx="82" cy="494" r="37" fill="#FFFFFF" opacity="0.42"/><circle cx="385" cy="518" r="23" fill="#FFFFFF" opacity="0.44"/><circle cx="303" cy="516" r="44" fill="#FFFFFF" opacity="0.60"/><circle cx="15" cy="309" r="14" fill="#FFFFFF" opacity="0.75"/><circle cx="470" cy="414" r="37" fill="#FFFFFF" opacity="0.72"/><circle cx="562" cy="252" r="41" fill="#FFFFFF" opacity="0.75"/><circle cx="544" cy="271" r="26" fill="#FFFFFF" opacity="0.70"/><circle cx="419" cy="254" r="31" fill="#FFFFFF" opacity="0.71"/><circle cx="601" cy="507" r="16" fill="#FFFFFF" opacity="0.57"/><circle cx="358" cy="305" r="24" fill="#FFFFFF" opacity="0.52"/><circle cx="65" cy="289" r="27" fill="#FFFFFF" opacity="0.57"/></svg>