<svg xmlns="http://www.w3.org/2000/svg" viewBox="0 0 800 600"><rect width="800" height="600" fill="#1C192E"/><path d="M0,380 C180,300 620,280 800,340 L800,600 L0,600 Z" fill="#1B1E24"/><circle cx="332" cy="462" r="11" fill="#FFFFFF" opacity="0.87"/><circle cx="277" cy="519" r="15" fill="#FFFFFF" opacity="0.69"/><circle cx="432" cy="405" r="33" fill="#FFFFFF" opacity="0.57"/><circle cx="83" cy="282" r="45" fill="#FFFFFF" opacity="0.62"/><circle cx="481" cy="272" r="27" fill="#FFFFFF" opacity="0.37"/><circle cx="269" cy="460" r="25" fill="#FFFFFF" opacity="0.59"/><circle cx="103" cy="455" r="13" fill="#FFFFFF" opacity="0.81"/><circle cx="193" cy="333" r="26" fill="#FFFFFF" opacity="0.76"/><circle cx="310" cy="466" r="30" fill="#FFFFFF" opacity="0.38"/><circle cx="171" cy="412" r="17" fill="#FFFFFF" opacity="0.66"/><circle cx="657" cy="467" r="19" fill="#FFFFFF" opacity="0.77"/><circle cx="649" cy="495" r="24" fill="#FFFFFF" opacity="0.61"/><circle cx="679" cy="473" r="24" fill="#FFFFFF" opacity="0.76"/><circle cx="214" cy="314" r="24" fill="#FFFFFF" opacity="0.85"/><circle cx="509" cy="313" r="33" fill="#FFFFFF" opacity="0.79"/><circle cx="750" cy="447" r="20" fill="#FFFFFF" opacity="0.49"/><circle cx="471" cy="400" r="32" fill="#FFFFFF" opacity="0.51"/><circle cx="360" cy="462" r="28" fill="#FFFFFF" opacity="0.39"/><circle cx="280" cy="388" r="31" fill="#FFFFFF" opacity="0.81"/><circle cx="245" cy="331" r="31" fill="#FFFFFF" opacity="0.89"/><circle cx="469" cy="422" r="23" fill="#FFFFFF" opacity="0.83"/><circle cx="91" cy="431" r="28" fill="#FFFFFF" opacity="0.74"/><circle cx="19" cy="346" r="17" fill="#FFFFFF" opacity="0.89"/><circle cx="307" cy="300" r="21" fill="#FFFFFF" opacity="0.64"/><circle cx="493" cy="340" r="18" fill="#FFFFFF" opacity="0.60"/><circle cx="555" cy="436" r="16" fill="#FFFFFF" opacity="0.41"/><circle cx="749" cy="270" r="40" fill="#FFFFFF" opacity="0.52"/><circle cx="454" cy="295" r="22" fill="#FFFFFF" opacity="0.77"/><circle cx="245" cy="386" r="10" fill="#FFFFFF" opacity="0.83"/><circle cx="715" cy="480" r="12" fill="#FFFFFF" opacity="0.39"/><circle cx="592" cy="303" r="21" fill="#FFFFFF" opacity="0.88"/><circle cx="252" cy="476" r="12" fill="#FFFFFF" opacity="0.61"/><circle cx="338" cy="471" r="43" fill="#FFFFFF" opacity="0.81"/><circle cx="219" cy="369" r="13" fill="#FFFFFF" opacity="0.57"/><circle cx="719" cy="400" r="29" fill="#FFFFFF" opacity="0.87"/><circle cx="423" cy="357" r="19" fill="#FFFFFF" opacity="0.80"/><circle cx="223" cy="293" r="17" fill="#FFFFFF" opacity="0.35"/><circle cx="672" cy="483" r="41" fill="#FFFFFF" opacity="0.73"/><circle cx="429" cy="253" r="31" fill="#FFFFFF" opacity="0.67"/><circle cx="764" cy="395" r="32" fill="#FFFFFF" opacity="0.47"/><circle cx="704" cy="342" r="20" fill="#FFFFFF" opacity="0.63"/><circle cx="250" cy="461" r="25" fill="#FFFFFF" opacity="0.89"/><circle cx="431" cy="339" r="28" fill="#FFFFFF" opacity="0.88"/><circle cx="27" cy="409" r="41" fill="#FFFFFF" opacity="0.80"/><circle cx="64" cy="461" r="18" fill="#FFFFFF" opacity="0.40"/><circle cx="118" cy="376" r="32" fill="#FFFFFF" opacity="0.47"/><circle cx="384" cy="363" r="28" fill="#FFFFFF" opacity="0.78"/><circle cx="694" cy="292" r="15" fill="#FFFFFF" opacity="0.45"/><circle cx="406" cy="410" r="18" fill="#FFFFFF" opacity="0.76"/><circle cx="569" cy="409" r="41" fill="#FFFFFF" opacity="0.79"/><circle cx="281" cy="505" r="42" fill="#FFFFFF" opacity="0.59"/><circle cx="199" cy="433" r="39" fill="#FFFFFF" opacity="0.37"/><circle cx="94" cy="408" r="44" fill="#FFFFFF" opacity="0.81"/><circle cx="61" cy="454" r="12" fill="#FFFFFF" opacity="0.78"/><circle cx="167" cy="330" r="24" fill="#FFFFFF" opacity="0.43"/><circle cx="286" cy="345" r="28" fill="#FFFFFF" opacity="0.36"/><circle cx="203" cy="296" r="46" fill="#FFFFFF" opacity="0.75"/><circle cx="383" cy="320" r="31" fill="#FFFFFF" opacity="0.87"/><circle cx="60" cy="288" r="23" fill="#FFFFFF" opacity="0.82"/><circle cx="445" cy="373" r="25" fill="#FFFFFF" opacity="0.58"/><circle cx="270" cy="406" r="42" fill="#FFFFFF" opacity="0.77"/><circle cx="301" cy="401" r="13" fill="#FFFFFF" opacity="0.63"/><circle cx="718" cy="375" r="18" fill="#FFFFFF" opacity="0.41"/><circle cx="752" cy="473" r="28" fill="#FFFFFF" opacity="0.89"/><circle cx="120" cy="313" r="26" fill="#FFFFFF" opacity="0.84"/><circle cx="775" cy="284" r="33" fill="#FFFFFF" opacity="0.59"/><circle cx="195" cy="333" r="20" fill="#FFFFFF" opacity="0.79"/><circle cx="731" cy="313" r="28" fill="#FFFFFF" opacity="0.58"/><circle cx="602" cy="418" r="31" fill="#FFFFFF" opacity="0.49"/><circle cx="368" cy="413" r="39" fill="#FFFFFF" opacity="0.36"/><circle cx="762" cy="488" r="25" fill="#FFFFFF" opacity="0.84"/><circle cx="192" cy="286" r="44" fill="#FFFFFF" opacity="0.43"/><circle cx="318" cy="336" r="20" fill="#FFFFFF" opacity="0.86"/><circle cx="154" cy="255" r="22" fill="#FFFFFF" opacity="0.71"/><circle cx="157" cy="460" r="15" fill="#FFFFFF" opacity="0.85"/><circle cx="358" cy="454" r="29" fill="#FFFFFF" opacity="0.81"/><circle cx="195" cy="506" r="27" fill="#FFFFFF" opacity="0.64"/><circle cx="135" cy="308" r="13" fill="#FFFFFF" opacity="0.46"/><circle cx="678" cy="311" r="44" fill="#FFFFFF" opacity="0.55"/><circle cx="349" cy="426" r="35" fill="#FFFFFF" opacity="0.63"/><circle cx="370" cy="457" r="38" fill="#FFFFFF" opacity="0.56"/><circle cx="773" cy="508" r="11" fill="#FFFFFF" opacity="0.76"/><circle cx="404" cy="341" r="27" fill="#FFFFFF" opacity="0.51"/><circle cx="215" cy="347" r="41" fill="#FFFFFF" opacity="0.67"/><circle cx="716" cy="279" r="10" fill="#FFFFFF" opacity="0.88"/><circle cx="490" cy="473" r="38" fill="#FFFFFF" opacity="0.62"/><circle cx="182" cy="362" r="33" fill="#FFFFFF" opacity="0.79"/><circle cx="427" cy="260" r="46" fill="#FFFFFF" opacity="0.43"/><circle cx="637" cy="351" r="23" fill="#FFFFFF" opacity="0.83"/><circle cx="123" cy="383" r="30" fill="#FFFFFF" opacity="0.61"/><circle cx="515" cy="507" r="30" fill="#FFFFFF" opacity="0.83"/><circle cx="443" cy="427" r="13" fill="#FFFFFF" opacity="0.68"/><circle cx="748" cy="357" r="30" fill="#FFFFFF" opacity="0.75"/><circle cx="383" cy="511" r="28" fill="#FFFFFF" opacity="0.63"/><circle cx="22" cy="318" r="32" fill="#FFFFFF" opacity="0.36"/><circle cx="387" cy="287" r="27" fill="#FFFFFF" opacity="0.79"/><circle cx="39" cy="310" r="23" fill="#FFFFFF" opacity="0.41"/><circle cx="508" cy="461" r="29" fill="#FFFFFF" opacity="0.87"/><circle cx="103" cy="271" r="43" fill="#FFFFFF" opacity="0.67"/><circle cx="689" cy="480" r="13" fill="#FFFFFF" opacity="0.89"/><circle cx="756" cy="501" r="23" fill="#FFFFFF" opacity="0.63"/><circle cx="20" cy="426" r="22" fill="#FFFFFF" opacity="0.89"/><circle cx="767" cy="284" r="14" fill="#FFFFFF" opacity="0.80"/><circle cx="368" cy="342" r="15" fill="#FFFFFF" opacity="0.56"/><circle cx="271" cy="437" r="39" fill="#FFFFFF" opacity="0.36"/><circle cx="256" cy="440" r="13" fill="#FFFFFF" opacity="0.65"/><circle cx="1" cy="274" r="18" fill="#FFFFFF" opacity="0.46"/><circle cx="729" cy="386" r="14" fill="#FFFFFF" opacity="0.81"/><circle cx="255" cy="326" r="33" fill="#FFFFFF" opacity="0.61"/><circle cx="618" cy="254" r="24" fill="#FFFFFF" opacity="0.86"/></svg>