<svg xmlns="http://www.w3.org/2000/svg" viewBox="0 0 800 600"><rect width="800" height="600" fill="#242017"/><path d="M0,380 C180,300 620,280 800,340 L800,600 L0,600 Z" fill="#22262B"/><circle cx="559" cy="300" r="11" fill="#FFFFFF" opacity="0.79"/><circle cx="759" cy="450" r="17" fill="#FFFFFF" opacity="0.61"/><circle cx="413" cy="391" r="30" fill="#FFFFFF" opacity="0.51"/><circle cx="457" cy="395" r="34" fill="#FFFFFF" opacity="0.52"/><circle cx="323" cy="355" r="37" fill="#FFFFFF" opacity="0.58"/><circle cx="518" cy="415" r="39" fill="#FFFFFF" opacity="0.60"/><circle cx="540" cy="290" r="36" fill="#FFFFFF" opacity="0.50"/><circle cx="118" cy="470" r="40" fill="#FFFFFF" opacity="0.65"/><circle cx="316" cy="482" r="27" fill="#FFFFFF" opacity="0.39"/><circle cx="578" cy="269" r="19" fill="#FFFFFF" opacity="0.68"/><circle cx="163" cy="306" r="43" fill="#FFFFFF" opacity="0.84"/><circle cx="522" cy="386" r="20" fill="#FFFFFF" opacity="0.84"/><circle cx="106" cy="438" r="38" fill="#FFFFFF" opacity="0.85"/><circle cx="400" cy="419" r="12" fill="#FFFFFF" opacity="0.59"/><circle cx="657" cy="501" r="31" fill="#FFFFFF" opacity="0.78"/><circle cx="538" cy="490" r="44" fill="#FFFFFF" opacity="0.54"/><circle cx="796" cy="360" r="12" fill="#FFFFFF" opacity="0.39"/><circle cx="727" cy="429" r="45" fill="#FFFFFF" opacity="0.49"/><circle cx="183" cy="351" r="29" fill="#FFFFFF" opacity="0.61"/><circle cx="576" cy="301" r="25" fill="#FFFFFF" opacity="0.42"/><circle cx="155" cy="389" r="40" fill="#FFFFFF" opacity="0.84"/><circle cx="274" cy="397" r="20" fill="#FFFFFF" opacity="0.66"/><circle cx="539" cy="303" r="14" fill="#FFFFFF" opacity="0.59"/><circle cx="746" cy="272" r="42" fill="#FFFFFF" opacity="0.37"/><circle cx="64" cy="294" r="46" fill="#FFFFFF" opacity="0.57"/><circle cx="752" cy="519" r="35" fill="#FFFFFF" opacity="0.42"/><circle cx="307" cy="448" r="24" fill="#FFFFFF" opacity="0.60"/><circle cx="561" cy="338" r="15" fill="#FFFFFF" opacity="0.81"/><circle cx="11" cy="505" r="15" fill="#FFFFFF" opacity="0.82"/><circle cx="35" cy="463" r="29" fill="#FFFFFF" opacity="0.69"/><circle cx="529" cy="362" r="28" fill="#FFFFFF" opacity="0.87"/><circle cx="337" cy="380" r="40" fill="#FFFFFF" opacity="0.81"/><circle cx="336" cy="400" r="21" fill="#FFFFFF" opacity="0.36"/><circle cx="294" cy="253" r="38" fill="#FFFFFF" opacity="0.41"/><circle cx="618" cy="472" r="25" fill="#FFFFFF" opacity="0.89"/><circle cx="54" cy="291" r="14" fill="#FFFFFF" opacity="0.71"/><circle cx="616" cy="502" r="46" fill="#FFFFFF" opacity="0.55"/><circle cx="472" cy="444" r="22" fill="#FFFFFF" opacity="0.80"/><circle cx="498" cy="470" r="43" fill="#FFFFFF" opacity="0.39"/><circle cx="36" cy="421" r="38" fill="#FFFFFF" opacity="0.57"/><circle cx="435" cy="299" r="19" fill="#FFFFFF" opacity="0.79"/><circle cx="291" cy="431" r="38" fill="#FFFFFF" opacity="0.61"/><circle cx="74" cy="472" r="14" fill="#FFFFFF" opacity="0.53"/><circle cx="690" cy="439" r="23" fill="#FFFFFF" opacity="0.60"/><circle cx="406" cy="486" r="44" fill="#FFFFFF" opacity="0.55"/><circle cx="201" cy="394" r="15" fill="#FFFFFF" opacity="0.56"/><circle cx="111" cy="262" r="39" fill="#FFFFFF" opacity="0.60"/><circle cx="328" cy="422" r="31" fill="#FFFFFF" opacity="0.48"/><circle cx="510" cy="400" r="20" fill="#FFFFFF" opacity="0.36"/><circle cx="717" cy="259" r="37" fill="#FFFFFF" opacity="0.54"/><circle cx="649" cy="446" r="28" fill="#FFFFFF" opacity="0.50"/><circle cx="613" cy="440" r="31" fill="#FFFFFF" opacity="0.83"/><circle cx="219" cy="376" r="10" fill="#FFFFFF" opacity="0.57"/><circle cx="656" cy="368" r="40" fill="#FFFFFF" opacity="0.37"/><circle cx="606" cy="501" r="10" fill="#FFFFFF" opacity="0.87"/><circle cx="540" cy="495" r="46" fill="#FFFFFF" opacity="0.78"/><circle cx="501" cy="470" r="19" fill="#FFFFFF" opacity="0.57"/><circle cx="575" cy="259" r="35" fill="#FFFFFF" opacity="0.70"/><circle cx="145" cy="474" r="24" fill="#FFFFFF" opacity="0.70"/><circle cx="658" cy="355" r="44" fill="#FFFFFF" opacity="0.72"/><circle cx="406" cy="321" r="33" fill="#FFFFFF" opacity="0.55"/><circle cx="8" cy="297" r="38" fill="#FFFFFF" opacity="0.73"/><circle cx="526" cy="333" r="35" fill="#FFFFFF" opacity="0.56"/><circle cx="349" cy="447" r="27" fill="#FFFFFF" opacity="0.67"/><circle cx="520" cy="504" r="16" fill="#FFFFFF" opacity="0.56"/><circle cx="390" cy="270" r="14" fill="#FFFFFF" opacity="0.69"/><circle cx="747" cy="375" r="14" fill="#FFFFFF" opacity="0.42"/><circle cx="605" cy="277" r="12" fill="#FFFFFF" opacity="0.58"/><circle cx="339" cy="360" r="10" fill="#FFFFFF" opacity="0.49"/><circle cx="18" cy="501" r="43" fill="#FFFFFF" opacity="0.38"/><circle cx="427" cy="490" r="35" fill="#FFFFFF" opacity="0.76"/><circle cx="450" cy="469" r="15" fill="#FFFFFF" opacity="0.61"/><circle cx="74" cy="405" r="25" fill="#FFFFFF" opacity="0.45"/><circle cx="251" cy="288" r="26" fill="#FFFFFF" opacity="0.68"/><circle cx="337" cy="430" r="35" fill="#FFFFFF" opacity="0.54"/><circle cx="699" cy="486" r="44" fill="#FFFFFF" opacity="0.41"/><circle cx="167" cy="421" r="11" fill="#FFFFFF" opacity="0.81"/><circle cx="483" cy="268" r="17" fill="#FFFFFF" opacity="0.45"/><circle cx="771" cy="459" r="38" fill="#FFFFFF" opacity="0.60"/><circle cx="798" cy="393" r="10" fill="#FFFFFF" opacity="0.64"/><circle cx="530" cy="454" r="22" fill="#FFFFFF" opacity="0.74"/><circle cx="780" cy="495" r="12" fill="#FFFFFF" opacity="0.85"/><circle cx="114" cy="332" r="44" fill="#FFFFFF" opacity="0.39"/><circle cx="374" cy="432" r="22" fill="#FFFFFF" opacity="0.62"/><circle cx="288" cy="272" r="30" fill="#FFFFFF" opacity="0.53"/><circle cx="595" cy="364" r="40" fill="#FFFFFF" opacity="0.81"/><circle cx="167" cy="496" r="38" fill="#FFFFFF" opacity="0.53"/><circle cx="772" cy="387" r="22" fill="#FFFFFF" opacity="0.48"/><circle cx="779" cy="324" r="22" fill="#FFFFFF" opacity="0.66"/><circle cx="618" cy="479" r="33" fill="#FFFFFF" opacity="0.46"/><circle cx="348" cy="455" r="28" fill="#FFFFFF" opacity="0.87"/><circle cx="206" cy="366" r="28" fill="#FFFFFF" opacity="0.61"/><circle cx="437" cy="382" r="29" fill="#FFFFFF" opacity="0.68"/><circle cx="718" cy="434" r="13" fill="#FFFFFF" opacity="0.77"/><circle cx="479" cy="488" r="44" fill="#FFFFFF" opacity="0.57"/><circle cx="151" cy="339" r="30" fill="#FFFFFF" opacity="0.36"/><circle cx="399" cy="516" r="21" fill="#FFFFFF" opacity="0.64"/><circle cx="174" cy="462" r="24" fill="#FFFFFF" opacity="0.59"/><circle cx="475" cy="388" r="40" fill="#FFFFFF" opacity="0.37"/><circle cx="531" cy="377" r="34" fill="#FFFFFF" opacity="0.47"/><circle cx="594" cy="444" r="28" fill="#FFFFFF" opacity="0.58"/><circle cx="50" cy="350" r="22" fill="#FFFFFF" opacity="0.78"/><circle cx="692" cy="360" r="12" fill="#FFFFFF" opacity="0.87"/><circle cx="168" cy="471" r="31" fill="#FFFFFF" opacity="0.57"/><circle cx="515" cy="459" r="34" fill="#FFFFFF" opacity="0.76"/><circle cx="61" cy="389" r="18" fill="#FFFFFF" opacity="0.66"/><circle cx="20" cy="383" r="41" fill="#FFFFFF" opacity="0.44"/><circle cx="505" cy="258" r="29" fill="#FFFFFF" opacity="0.79"/><circle cx="190" cy="465" r="43" fill="#FFFFFF" opacity="0.49"/><circle cx="390" cy="499" r="12" fill="#FFFFFF" opacity="0.67"/></svg>