<svg xmlns="http://www.w3.org/2000/svg" viewBox="0 0 800 600"><rect width="800" height="600" fill="#0B202C"/><path d="M0,380 C180,300 620,280 800,340 L800,600 L0,600 Z" fill="#1E2226"/><circle cx="449" cy="315" r="19" fill="#FFFFFF" opacity="0.89"/><circle cx="79" cy="261" r="34" fill="#FFFFFF" opacity="0.78"/><circle cx="146" cy="338" r="13" fill="#FFFFFF" opacity="0.65"/><circle cx="373" cy="321" r="45" fill="#FFFFFF" opacity="0.78"/><circle cx="244" cy="252" r="40" fill="#FFFFFF" opacity="0.90"/><circle cx="235" cy="407" r="15" fill="#FFFFFF" opacity="0.79"/><circle cx="309" cy="516" r="27" fill="#FFFFFF" opacity="0.84"/><circle cx="620" cy="499" r="41" fill="#FFFFFF" opacity="0.63"/><circle cx="259" cy="509" r="45" fill="#FFFFFF" opacity="0.48"/><circle cx="373" cy="463" r="27" fill="#FFFFFF" opacity="0.56"/><circle cx="523" cy="406" r="46" fill="#FFFFFF" opacity="0.58"/><circle cx="449" cy="276" r="13" fill="#FFFFFF" opacity="0.88"/><circle cx="764" cy="434" r="30" fill="#FFFFFF" opacity="0.58"/><circle cx="734" cy="325" r="39" fill="#FFFFFF" opacity="0.58"/><circle cx="310" cy="290" r="37" fill="#FFFFFF" opacity="0.48"/><circle cx="285" cy="368" r="32" fill="#FFFFFF" opacity="0.89"/><circle cx="24" cy="413" r="42" fill="#FFFFFF" opacity="0.77"/><circle cx="353" cy="361" r="34" fill="#FFFFFF" opacity="0.39"/><circle cx="148" cy="274" r="12" fill="#FFFFFF" opacity="0.78"/><circle cx="75" cy="295" r="25" fill="#FFFFFF" opacity="0.54"/><circle cx="346" cy="299" r="41" fill="#FFFFFF" opacity="0.69"/><circle cx="773" cy="482" r="40" fill="#FFFFFF" opacity="0.39"/><circle cx="620" cy="506" r="16" fill="#FFFFFF" opacity="0.81"/><circle cx="519" cy="392" r="36" fill="#FFFFFF" opacity="0.85"/><circle cx="256" cy="485" r="13" fill="#FFFFFF" opacity="0.85"/><circle cx="642" cy="402" r="16" fill="#FFFFFF" opacity="0.54"/><circle cx="724" cy="285" r="11" fill="#FFFFFF" opacity="0.83"/><circle cx="42" cy="446" r="19" fill="#FFFFFF" opacity="0.38"/><circle cx="530" cy="288" r="13" fill="#FFFFFF" opacity="0.49"/><circle cx="414" cy="260" r="22" fill="#FFFFFF" opacity="0.83"/><circle cx="32" cy="431" r="14" fill="#FFFFFF" opacity="0.84"/><circle cx="693" cy="369" r="33" fill="#FFFFFF" opacity="0.83"/><circle cx="249" cy="343" r="28" fill="#FFFFFF" opacity="0.49"/><circle cx="76" cy="295" r="20" fill="#FFFFFF" opacity="0.73"/><circle cx="446" cy="445" r="23" fill="#FFFFFF" opacity="0.37"/><circle cx="761" cy="272" r="18" fill="#FFFFFF" opacity="0.88"/><circle cx="165" cy="271" r="42" fill="#FFFFFF" opacity="0.88"/><circle cx="503" cy="469" r="36" fill="#FFFFFF" opacity="0.67"/><circle cx="793" cy="258" r="34" fill="#FFFFFF" opacity="0.60"/><circle cx="640" cy="277" r="42" fill="#FFFFFF" opacity="0.58"/><circle cx="620" cy="520" r="12" fill="#FFFFFF" opacity="0.66"/><circle cx="31" cy="391" r="32" fill="#FFFFFF" opacity="0.56"/><circle cx="279" cy="316" r="25" fill="#FFFFFF" opacity="0.78"/><circle cx="613" cy="499" r="21" fill="#FFFFFF" opacity="0.40"/><circle cx="701" cy="313" r="26" fill="#FFFFFF" opacity="0.52"/><circle cx="607" cy="406" r="11" fill="#FFFFFF" opacity="0.77"/><circle cx="455" cy="409" r="19" fill="#FFFFFF" opacity="0.46"/><circle cx="710" cy="441" r="14" fill="#FFFFFF" opacity="0.61"/><circle cx="68" cy="291" r="37" fill="#FFFFFF" opacity="0.36"/><circle cx="151" cy="505" r="10" fill="#FFFFFF" opacity="0.51"/><circle cx="95" cy="349" r="16" fill="#FFFFFF" opacity="0.68"/><circle cx="377" cy="518" r="33" fill="#FFFFFF" opacity="0.57"/><circle cx="424" cy="355" r="27" fill="#FFFFFF" opacity="0.86"/><circle cx="202" cy="369" r="46" fill="#FFFFFF" opacity="0.64"/><circle cx="265" cy="298" r="22" fill="#FFFFFF" opacity="0.90"/><circle cx="674" cy="276" r="36" fill="#FFFFFF" opacity="0.74"/><circle cx="638" cy="503" r="26" fill="#FFFFFF" opacity="0.55"/><circle cx="76" cy="509" r="43" fill="#FFFFFF" opacity="0.45"/><circle cx="324" cy="491" r="36" fill="#FFFFFF" opacity="0.83"/><circle cx="406" cy="503" r="43" fill="#FFFFFF" opacity="0.78"/><circle cx="635" cy="397" r="35" fill="#FFFFFF" opacity="0.81"/><circle cx="181" cy="285" r="13" fill="#FFFFFF" opacity="0.75"/><circle cx="114" cy="474" r="27" fill="#FFFFFF" opacity="0.70"/><circle cx="221" cy="280" r="22" fill="#FFFFFF" opacity="0.88"/><circle cx="395" cy="414" r="41" fill="#FFFFFF" opacity="0.62"/><circle cx="618" cy="282" r="16" fill="#FFFFFF" opacity="0.53"/><circle cx="205" cy="303" r="37" fill="#FFFFFF" opacity="0.60"/><circle cx="521" cy="410" r="14" fill="#FFFFFF" opacity="0.74"/><circle cx="550" cy="333" r="13" fill="#FFFFFF" opacity="0.71"/><circle cx="16" cy="500" r="36" fill="#FFFFFF" opacity="0.48"/><circle cx="426" cy="360" r="42" fill="#FFFFFF" opacity="0.74"/><circle cx="590" cy="318" r="27" fill="#FFFFFF" opacity="0.87"/><circle cx="515" cy="353" r="45" fill="#FFFFFF" opacity="0.72"/><circle cx="86" cy="337" r="15" fill="#FFFFFF" opacity="0.86"/><circle cx="664" cy="486" r="45" fill="#FFFFFF" opacity="0.49"/><circle cx="101" cy="495" r="36" fill="#FFFFFF" opacity="0.36"/><circle cx="543" cy="413" r="23" fill="#FFFFFF" opacity="0.78"/><circle cx="398" cy="288" r="25" fill="#FFFFFF" opacity="0.81"/><circle cx="601" cy="252" r="17" fill="#FFFFFF" opacity="0.46"/><circle cx="474" cy="449" r="23" fill="#FFFFFF" opacity="0.76"/><circle cx="372" cy="421" r="41" fill="#FFFFFF" opacity="0.37"/><circle cx="49" cy="408" r="24" fill="#FFFFFF" opacity="0.54"/><circle cx="215" cy="386" r="41" fill="#FFFFFF" opacity="0.36"/><circle cx="442" cy="392" r="12" fill="#FFFFFF" opacity="0.50"/><circle cx="645" cy="337" r="39" fill="#FFFFFF" opacity="0.36"/><circle cx="410" cy="384" r="40" fill="#FFFFFF" opacity="0.63"/><circle cx="628" cy="374" r="45" fill="#FFFFFF" opacity="0.47"/><circle cx="533" cy="417" r="32" fill="#FFFFFF" opacity="0.56"/><circle cx="163" cy="514" r="20" fill="#FFFFFF" opacity="0.57"/><circle cx="236" cy="465" r="33" fill="#FFFFFF" opacity="0.74"/><circle cx="264" cy="476" r="30" fill="#FFFFFF" opacity="0.68"/><circle cx="352" cy="479" r="29" fill="#FFFFFF" opacity="0.76"/><circle cx="651" cy="351" r="12" fill="#FFFFFF" opacity="0.38"/><circle cx="535" cy="304" r="13" fill="#FFFFFF" opacity="0.69"/><circle cx="322" cy="333" r="42" fill="#FFFFFF" opacity="0.49"/><circle cx="366" cy="262" r="34" fill="#FFFFFF" opacity="0.43"/><circle cx="594" cy="520" r="42" fill="#FFFFFF" opacity="0.57"/><circle cx="413" cy="507" r="45" fill="#FFFFFF" opacity="0.77"/><circle cx="758" cy="416" r="24" fill="#FFFFFF" opacity="0.43"/><circle cx="593" cy="474" r="34" fill="#FFFFFF" opacity="0.38"/><circle cx="538" cy="508" r="38" fill="#FFFFFF" opacity="0.47"/><circle cx="583" cy="342" r="37" fill="#FFFFFF" opacity="0.36"/><circle cx="58" cy="387" r="20" fill="#FFFFFF" opacity="0.72"/><circle cx="602" cy="363" r="39" fill="#FFFFFF" opacity="0.46"/><circle cx="171" cy="318" r="26" fill="#FFFFFF" opacity="0.78"/><circle cx="241" cy="370" r="38" fill="#FFFFFF" opacity="0.88"/><circle cx="145" cy="297" r="19" fill="#FFFFFF" opacity="0.52"/><circle cx="711" cy="382" r="39" fill="#FFFFFF" opacity="0.47"/><circle cx="234" cy="402" r="37" fill="#FFFFFF" opacity="0.41"/><circle cx="135" cy="428" r="18" fill="#FFFFFF" opacity="0.56"/></svg>