<svg xmlns="http://www.w3.org/2000/svg" viewBox="0 0 800 600"><rect width="800" height="600" fill="#0A222A"/><path d="M0,380 C180,300 620,280 800,340 L800,600 L0,600 Z" fill="#1B1F25"/><circle cx="131" cy="288" r="24" fill="#FFFFFF" opacity="0.57"/><circle cx="403" cy="371" r="23" fill="#FFFFFF" opacity="0.76"/><circle cx="170" cy="518" r="16" fill="#FFFFFF" opacity="0.64"/><circle cx="415" cy="283" r="36" fill="#FFFFFF" opacity="0.78"/><circle cx="101" cy="321" r="15" fill="#FFFFFF" opacity="0.84"/><circle cx="632" cy="304" r="44" fill="#FFFFFF" opacity="0.90"/><circle cx="729" cy="383" r="40" fill="#FFFFFF" opacity="0.44"/><circle cx="33" cy="493" r="30" fill="#FFFFFF" opacity="0.62"/><circle cx="521" cy="321" r="46" fill="#FFFFFF" opacity="0.53"/><circle cx="362" cy="417" r="43" fill="#FFFFFF" opacity="0.54"/><circle cx="320" cy="507" r="12" fill="#FFFFFF" opacity="0.49"/><circle cx="486" cy="461" r="34" fill="#FFFFFF" opacity="0.62"/><circle cx="242" cy="493" r="16" fill="#FFFFFF" opacity="0.81"/><circle cx="740" cy="322" r="21" fill="#FFFFFF" opacity="0.61"/><circle cx="46" cy="291" r="11" fill="#FFFFFF" opacity="0.45"/><circle cx="780" cy="402" r="16" fill="#FFFFFF" opacity="0.38"/><circle cx="744" cy="481" r="29" fill="#FFFFFF" opacity="0.90"/><circle cx="723" cy="381" r="30" fill="#FFFFFF" opacity="0.84"/><circle cx="254" cy="443" r="23" fill="#FFFFFF" opacity="0.41"/><circle cx="530" cy="419" r="38" fill="#FFFFFF" opacity="0.83"/><circle cx="640" cy="268" r="34" fill="#FFFFFF" opacity="0.53"/><circle cx="737" cy="381" r="37" fill="#FFFFFF" opacity="0.52"/><circle cx="257" cy="297" r="18" fill="#FFFFFF" opacity="0.50"/><circle cx="469" cy="293" r="14" fill="#FFFFFF" opacity="0.87"/><circle cx="696" cy="423" r="44" fill="#FFFFFF" opacity="0.47"/><circle cx="787" cy="447" r="42" fill="#FFFFFF" opacity="0.58"/><circle cx="641" cy="513" r="41" fill="#FFFFFF" opacity="0.75"/><circle cx="133" cy="390" r="40" fill="#FFFFFF" opacity="0.40"/><circle cx="486" cy="355" r="16" fill="#FFFFFF" opacity="0.53"/><circle cx="555" cy="292" r="23" fill="#FFFFFF" opacity="0.56"/><circle cx="546" cy="382" r="23" fill="#FFFFFF" opacity="0.63"/><circle cx="346" cy="316" r="27" fill="#FFFFFF" opacity="0.87"/><circle cx="221" cy="366" r="36" fill="#FFFFFF" opacity="0.76"/><circle cx="553" cy="461" r="18" fill="#FFFFFF" opacity="0.68"/><circle cx="501" cy="322" r="30" fill="#FFFFFF" opacity="0.45"/><circle cx="618" cy="323" r="18" fill="#FFFFFF" opacity="0.80"/><circle cx="736" cy="386" r="40" fill="#FFFFFF" opacity="0.78"/><circle cx="261" cy="393" r="41" fill="#FFFFFF" opacity="0.75"/><circle cx="708" cy="323" r="20" fill="#FFFFFF" opacity="0.56"/><circle cx="273" cy="474" r="12" fill="#FFFFFF" opacity="0.78"/><circle cx="267" cy="405" r="35" fill="#FFFFFF" opacity="0.65"/><circle cx="314" cy="382" r="46" fill="#FFFFFF" opacity="0.74"/><circle cx="273" cy="451" r="40" fill="#FFFFFF" opacity="0.37"/><circle cx="164" cy="298" r="14" fill="#FFFFFF" opacity="0.90"/><circle cx="252" cy="515" r="30" fill="#FFFFFF" opacity="0.42"/><circle cx="1" cy="384" r="27" fill="#FFFFFF" opacity="0.51"/><circle cx="453" cy="262" r="44" fill="#FFFFFF" opacity="0.78"/><circle cx="591" cy="360" r="22" fill="#FFFFFF" opacity="0.73"/><circle cx="564" cy="250" r="28" fill="#FFFFFF" opacity="0.47"/><circle cx="435" cy="353" r="36" fill="#FFFFFF" opacity="0.85"/><circle cx="467" cy="495" r="27" fill="#FFFFFF" opacity="0.78"/><circle cx="194" cy="284" r="32" fill="#FFFFFF" opacity="0.64"/><circle cx="391" cy="348" r="36" fill="#FFFFFF" opacity="0.41"/><circle cx="381" cy="294" r="41" fill="#FFFFFF" opacity="0.45"/><circle cx="76" cy="502" r="44" fill="#FFFFFF" opacity="0.64"/><circle cx="580" cy="260" r="40" fill="#FFFFFF" opacity="0.77"/><circle cx="396" cy="464" r="22" fill="#FFFFFF" opacity="0.57"/><circle cx="642" cy="388" r="31" fill="#FFFFFF" opacity="0.52"/><circle cx="103" cy="439" r="45" fill="#FFFFFF" opacity="0.85"/><circle cx="561" cy="262" r="43" fill="#FFFFFF" opacity="0.57"/><circle cx="146" cy="467" r="23" fill="#FFFFFF" opacity="0.56"/><circle cx="550" cy="450" r="30" fill="#FFFFFF" opacity="0.76"/><circle cx="334" cy="325" r="27" fill="#FFFFFF" opacity="0.49"/><circle cx="798" cy="495" r="33" fill="#FFFFFF" opacity="0.87"/><circle cx="395" cy="287" r="28" fill="#FFFFFF" opacity="0.67"/><circle cx="206" cy="478" r="40" fill="#FFFFFF" opacity="0.76"/><circle cx="604" cy="517" r="18" fill="#FFFFFF" opacity="0.36"/><circle cx="602" cy="322" r="38" fill="#FFFFFF" opacity="0.65"/><circle cx="72" cy="375" r="33" fill="#FFFFFF" opacity="0.71"/><circle cx="50" cy="300" r="44" fill="#FFFFFF" opacity="0.57"/><circle cx="741" cy="261" r="32" fill="#FFFFFF" opacity="0.77"/><circle cx="367" cy="382" r="31" fill="#FFFFFF" opacity="0.55"/><circle cx="633" cy="398" r="37" fill="#FFFFFF" opacity="0.58"/><circle cx="447" cy="392" r="34" fill="#FFFFFF" opacity="0.86"/><circle cx="386" cy="516" r="24" fill="#FFFFFF" opacity="0.60"/><circle cx="309" cy="412" r="33" fill="#FFFFFF" opacity="0.36"/><circle cx="177" cy="410" r="16" fill="#FFFFFF" opacity="0.54"/><circle cx="61" cy="358" r="14" fill="#FFFFFF" opacity="0.37"/><circle cx="638" cy="326" r="44" fill="#FFFFFF" opacity="0.79"/><circle cx="781" cy="268" r="23" fill="#FFFFFF" opacity="0.49"/><circle cx="138" cy="279" r="16" fill="#FFFFFF" opacity="0.58"/><circle cx="651" cy="374" r="39" fill="#FFFFFF" opacity="0.63"/><circle cx="721" cy="390" r="22" fill="#FFFFFF" opacity="0.62"/><circle cx="303" cy="458" r="20" fill="#FFFFFF" opacity="0.39"/><circle cx="220" cy="356" r="20" fill="#FFFFFF" opacity="0.67"/><circle cx="317" cy="313" r="42" fill="#FFFFFF" opacity="0.84"/><circle cx="390" cy="424" r="23" fill="#FFFFFF" opacity="0.63"/><circle cx="223" cy="358" r="44" fill="#FFFFFF" opacity="0.62"/><circle cx="485" cy="457" r="46" fill="#FFFFFF" opacity="0.89"/><circle cx="698" cy="409" r="36" fill="#FFFFFF" opacity="0.61"/><circle cx="321" cy="280" r="28" fill="#FFFFFF" opacity="0.76"/><circle cx="200" cy="398" r="43" fill="#FFFFFF" opacity="0.77"/><circle cx="586" cy="279" r="13" fill="#FFFFFF" opacity="0.53"/><circle cx="431" cy="501" r="35" fill="#FFFFFF" opacity="0.83"/><circle cx="793" cy="399" r="23" fill="#FFFFFF" opacity="0.76"/><circle cx="218" cy="482" r="41" fill="#FFFFFF" opacity="0.40"/><circle cx="499" cy="261" r="44" fill="#FFFFFF" opacity="0.83"/><circle cx="361" cy="450" r="22" fill="#FFFFFF" opacity="0.63"/><circle cx="350" cy="514" r="30" fill="#FFFFFF" opacity="0.72"/><circle cx="598" cy="288" r="10" fill="#FFFFFF" opacity="0.36"/><circle cx="117" cy="497" r="27" fill="#FFFFFF" opacity="0.54"/><circle cx="135" cy="506" r="21" fill="#FFFFFF" opacity="0.56"/><circle cx="729" cy="294" r="41" fill="#FFFFFF" opacity="0.49"/><circle cx="196" cy="326" r="11" fill="#FFFFFF" opacity="0.56"/><circle cx="673" cy="291" r="45" fill="#FFFFFF" opacity="0.66"/><circle cx="522" cy="406" r="19" fill="#FFFFFF" opacity="0.75"/><circle cx="604" cy="281" r="42" fill="#FFFFFF" opacity="0.64"/><circle cx="117" cy="513" r="11" fill="#FFFFFF" opacity="0.73"/><circle cx="34" cy="267" r="46" fill="#FFFFFF" opacity="0.86"/><circle cx="340" cy="320" r="24" fill="#FFFFFF" opacity="0.88"/></svg>